<?xml version="1.0" encoding="UTF-8"?>
<svg id="Ebene_2" data-name="Ebene 2" xmlns="http://www.w3.org/2000/svg" xmlns:xlink="http://www.w3.org/1999/xlink" viewBox="0 0 491.57 291.85">
  <defs>
    <style>
      .cls-1 {
        fill: url(#Unbenannter_Verlauf_19);
      }

      .cls-1, .cls-2, .cls-3, .cls-4, .cls-5, .cls-6, .cls-7, .cls-8, .cls-9, .cls-10, .cls-11, .cls-12, .cls-13, .cls-14, .cls-15, .cls-16, .cls-17, .cls-18, .cls-19, .cls-20, .cls-21, .cls-22, .cls-23, .cls-24 {
        stroke-width: 0px;
      }

      .cls-2 {
        fill: url(#Unbenannter_Verlauf_21);
      }

      .cls-3 {
        fill: url(#Unbenannter_Verlauf_11-5);
      }

      .cls-4 {
        fill: url(#Unbenannter_Verlauf_4-2);
      }

      .cls-5 {
        fill: url(#Unbenannter_Verlauf_11-3);
      }

      .cls-6 {
        fill: url(#Unbenannter_Verlauf_21-2);
      }

      .cls-7 {
        fill: url(#Unbenannter_Verlauf_11-4);
      }

      .cls-8 {
        fill: #f7931e;
      }

      .cls-9 {
        fill: url(#Unbenannter_Verlauf_18);
      }

      .cls-10 {
        fill: #7f7f7f;
      }

      .cls-11 {
        fill: url(#Unbenannter_Verlauf_11);
      }

      .cls-12 {
        fill: url(#Unbenannter_Verlauf_13);
      }

      .cls-13 {
        fill: #f4e9ae;
      }

      .cls-14 {
        fill: url(#Unbenannter_Verlauf_20);
      }

      .cls-15 {
        fill: url(#Unbenannter_Verlauf_19-2);
      }

      .cls-16 {
        fill: url(#Unbenannter_Verlauf_17-2);
      }

      .cls-17 {
        fill: url(#Unbenannter_Verlauf_12);
      }

      .cls-18 {
        fill: url(#Unbenannter_Verlauf_14);
      }

      .cls-19 {
        fill: url(#Unbenannter_Verlauf_4);
      }

      .cls-20 {
        fill: #282828;
      }

      .cls-21 {
        fill: url(#Unbenannter_Verlauf_11-2);
      }

      .cls-22 {
        fill: url(#Unbenannter_Verlauf_4-3);
      }

      .cls-23 {
        fill: #f2f2f2;
      }

      .cls-24 {
        fill: url(#Unbenannter_Verlauf_17);
      }
    </style>
    <linearGradient id="Unbenannter_Verlauf_17" data-name="Unbenannter Verlauf 17" x1="22.98" y1="25.29" x2="70.13" y2="54.76" gradientUnits="userSpaceOnUse">
      <stop offset="0" stop-color="#f8db11"/>
      <stop offset="1" stop-color="#f8c511"/>
    </linearGradient>
    <linearGradient id="Unbenannter_Verlauf_4" data-name="Unbenannter Verlauf 4" x1="139.37" y1="1.11" x2="146.41" y2="65.6" gradientUnits="userSpaceOnUse">
      <stop offset="0" stop-color="#f8bf11"/>
      <stop offset="1" stop-color="#f8ac11"/>
    </linearGradient>
    <linearGradient id="Unbenannter_Verlauf_4-2" data-name="Unbenannter Verlauf 4" x1="178.74" y1="281.89" x2="189.57" y2="220.66" xlink:href="#Unbenannter_Verlauf_4"/>
    <linearGradient id="Unbenannter_Verlauf_11" data-name="Unbenannter Verlauf 11" x1="227.77" y1="279.94" x2="257.03" y2="19.01" gradientUnits="userSpaceOnUse">
      <stop offset="0" stop-color="#000"/>
      <stop offset="1" stop-color="#333"/>
    </linearGradient>
    <linearGradient id="Unbenannter_Verlauf_12" data-name="Unbenannter Verlauf 12" x1="350.79" y1="40.49" x2="316.6" y2="71.31" gradientUnits="userSpaceOnUse">
      <stop offset="0" stop-color="#fff"/>
      <stop offset=".55" stop-color="#fafafa"/>
      <stop offset="1" stop-color="#f2f2f2"/>
    </linearGradient>
    <linearGradient id="Unbenannter_Verlauf_13" data-name="Unbenannter Verlauf 13" x1="154.93" y1="107.93" x2="279.1" y2="79.68" gradientUnits="userSpaceOnUse">
      <stop offset="0" stop-color="#fff"/>
      <stop offset=".56" stop-color="#fafafa"/>
      <stop offset="1" stop-color="#f2f2f2"/>
    </linearGradient>
    <linearGradient id="Unbenannter_Verlauf_11-2" data-name="Unbenannter Verlauf 11" x1="321.89" y1="67.45" x2="333.81" y2="58.78" gradientTransform="translate(28.34 -84.48) rotate(15.33)" xlink:href="#Unbenannter_Verlauf_11"/>
    <linearGradient id="Unbenannter_Verlauf_14" data-name="Unbenannter Verlauf 14" x1="154.38" y1="87.64" x2="234.88" y2="87.64" gradientUnits="userSpaceOnUse">
      <stop offset="0" stop-color="#e6e6e6"/>
      <stop offset="1" stop-color="#e6e6e6"/>
    </linearGradient>
    <linearGradient id="Unbenannter_Verlauf_18" data-name="Unbenannter Verlauf 18" x1="3.49" y1="88.53" x2="44.84" y2="50.83" gradientUnits="userSpaceOnUse">
      <stop offset="0" stop-color="#f8db11"/>
      <stop offset="1" stop-color="#f8b411"/>
    </linearGradient>
    <linearGradient id="Unbenannter_Verlauf_11-3" data-name="Unbenannter Verlauf 11" x1="210.56" y1="124.78" x2="213.77" y2="71.9" xlink:href="#Unbenannter_Verlauf_11"/>
    <linearGradient id="Unbenannter_Verlauf_19" data-name="Unbenannter Verlauf 19" x1="77.46" y1="80.19" x2="95.46" y2="212.7" gradientUnits="userSpaceOnUse">
      <stop offset="0" stop-color="#000"/>
      <stop offset="1" stop-color="#999"/>
    </linearGradient>
    <linearGradient id="Unbenannter_Verlauf_19-2" data-name="Unbenannter Verlauf 19" x1="47.81" y1="135.41" x2="116.53" y2="252.39" xlink:href="#Unbenannter_Verlauf_19"/>
    <linearGradient id="Unbenannter_Verlauf_21" data-name="Unbenannter Verlauf 21" x1="433.99" y1="151.12" x2="496.25" y2="129.17" gradientUnits="userSpaceOnUse">
      <stop offset="0" stop-color="#000"/>
      <stop offset=".53" stop-color="#575757"/>
      <stop offset=".9" stop-color="#999"/>
    </linearGradient>
    <linearGradient id="Unbenannter_Verlauf_21-2" data-name="Unbenannter Verlauf 21" x1="337.46" y1="281.62" x2="353.09" y2="216.66" xlink:href="#Unbenannter_Verlauf_21"/>
    <linearGradient id="Unbenannter_Verlauf_20" data-name="Unbenannter Verlauf 20" x1="360.71" y1="252.57" x2="365.64" y2="202.49" gradientUnits="userSpaceOnUse">
      <stop offset="0" stop-color="#000"/>
      <stop offset=".09" stop-color="#0c0c0c"/>
      <stop offset=".25" stop-color="#2e2e2e"/>
      <stop offset=".46" stop-color="#636363"/>
      <stop offset=".65" stop-color="#999"/>
    </linearGradient>
    <linearGradient id="Unbenannter_Verlauf_11-4" data-name="Unbenannter Verlauf 11" x1="370.7" y1="115.67" x2="476.05" y2="115.67" xlink:href="#Unbenannter_Verlauf_11"/>
    <linearGradient id="Unbenannter_Verlauf_4-3" data-name="Unbenannter Verlauf 4" x1="259.14" y1="44.38" x2="321.45" y2="89.8" xlink:href="#Unbenannter_Verlauf_4"/>
    <linearGradient id="Unbenannter_Verlauf_11-5" data-name="Unbenannter Verlauf 11" x1="257.72" y1="51.56" x2="264.89" y2="51.56" gradientTransform="translate(175.31 -200.51) rotate(60)" xlink:href="#Unbenannter_Verlauf_11"/>
    <linearGradient id="Unbenannter_Verlauf_17-2" data-name="Unbenannter Verlauf 17" x1="55.44" y1="93.66" x2="35.86" y2="74.16" xlink:href="#Unbenannter_Verlauf_17"/>
  </defs>
  <g id="Ebene_6" data-name="Ebene 6">
    <g>
      <path class="cls-24" d="M60.73,55.63c-2.99-1.24-2.98-4-2.98-4-.68-2.07-1.23-7.4-6.11-11.32-4.88-3.92-13.8-.43-15.56-1.51-1.76-1.08.33-4.53,3.79-6.58,3.46-2.06,11.76-4.79,15.21-4.08,3.45.71,3.47-3.44.02-5.53-3.44-2.09-17.47-7.43-22.2-4.81-4.73,2.62-17.86,6.02-13.76,15.71s2.71,12.44,7.54,14.54c.66.29,1.2.58,1.65.87,6.44-.39,13.85,1.63,18.34,4.8-4.68.54-10.85-2.27-16.26-1.76.2.76,0,.73,0,.73l20.06,6.17,6.25.76s5.84.25,8.59.65c2.76.4,4.31-4.28,4.31-4.28,0,0-5.91.89-8.9-.35Z"/>
      <path class="cls-19" d="M156.15,67.23c-1.02-1.83-2.3-4.17-3.28-6.05-1.37-2.85-3.23-5.37-2.95-7.75.36-2.15,2.64-3.13,4.38-4.13,5.62-3.08,11.1-6.58,15.74-11.08,6.38-6.14,4.85-13.26-4.72-12.77-2.72-.07-3.19-1.33-2.25-3.68,1.22-3.09,3.41-6.21,3.47-9.68.15-2.87-1.71-5.89-4.53-5.99-2.9-.34-5.75,2.93-8.39,2.84-2.6-.95.42-7.55-4.33-8.84-3.55-.68-6.73,2.33-9.46,4.31-11.87,9.29-23.63,20-26.56,34.91-2.07,10.95,3.48,19.6,14.79,20.98,7.46,1.17,11.48,7.86,16,13.17l12.09-6.23Z"/>
      <g>
        <path class="cls-8" d="M144.03,76.2c-.5,0-.92-.19-1.21-.52-.8-.94-1.57-1.91-2.34-2.87-.37-.46-.74-.92-1.11-1.38-2.35-2.9-4.72-5.64-7.86-7.35-1.72-.94-3.58-1.32-5.55-1.72-1.59-.33-3.23-.66-4.77-1.32-5.99-2.54-10.03-8.04-10.79-14.73-.75-6.6,1.53-14.45,6.44-22.09,4.64-7.23,11.77-12.72,18.12-17.13,1.08-.75,2.17-1.46,3.2-2.13,1.31-.86,2.55-1.67,3.47-2.36.07-.05.15-.08.23-.08.11,0,.21.05.29.14.13.16.11.38-.04.52l-10.07,9.02c-6.94,6.25-11.58,11.98-14.61,18.04-2.67,5.34-5.28,13.15-2.51,20.02,1.01,2.51,2.81,4.72,5.06,6.21,1.23.81,2.59,1.46,4.03,1.92,1.01.32,2.06.5,3.07.68.67.12,1.34.23,2,.39,6.26,1.44,10.23,6.37,14.07,11.14.46.57.92,1.14,1.37,1.7l9.59-4.94c-.77-1.4-1.52-2.75-2.24-4.12-.25-.47-.54-.97-.84-1.5-1.75-3.06-3.94-6.88-1.91-10.05.96-1.5,2.56-2.39,3.97-3.18.85-.48,2.33-1.13,3.89-1.83,1.87-.83,3.81-1.7,4.78-2.3.06-.04.13-.06.2-.06.11,0,.22.05.29.14.12.15.1.36-.03.5-.02.02-2.29,2.26-3.7,3.47-.63.55-1.11.97-1.5,1.33-.97.88-1.5,1.36-2.83,2.12-1.45.83-2.62,1.64-2.31,3.2.31,1.54,1.16,3.05,1.98,4.5.3.53.6,1.06.87,1.58.99,1.93,2.07,3.87,3.11,5.74l.17.3c.14.24.21.5.23.77.1.66-.22,1.28-.87,1.62l-12.42,6.4c-.27.14-.6.22-.91.22h0Z"/>
        <path class="cls-8" d="M141.85,2.88l-10.07,9.02c-5.8,5.23-11.18,11.12-14.69,18.15-3.04,6.07-5.18,13.73-2.52,20.32,1.04,2.59,2.88,4.84,5.21,6.38,1.28.85,2.66,1.5,4.12,1.97,1.68.53,3.4.68,5.1,1.08,6.98,1.61,11.12,7.73,15.43,12.94,3.4-1.75,6.8-3.5,10.2-5.26-.82-1.48-1.63-2.96-2.42-4.45-1.62-3.07-5.02-7.65-2.76-11.17.9-1.41,2.41-2.26,3.84-3.05,1.86-1.04,6.88-3.02,8.69-4.14,0,0-2.27,2.24-3.68,3.45-2.18,1.88-2.44,2.37-4.27,3.41-1.43.82-2.86,1.75-2.49,3.6.43,2.18,1.88,4.23,2.88,6.18,1.05,2.04,2.17,4.05,3.28,6.05.12.21.17.42.18.61.07.48-.1.97-.67,1.26-4.14,2.13-8.28,4.27-12.42,6.4-.22.11-.48.18-.74.18-.35,0-.69-.12-.93-.39-1.18-1.39-2.3-2.83-3.45-4.25-2.29-2.82-4.74-5.68-7.98-7.45-3.21-1.75-7-1.64-10.35-3.06-6.02-2.55-9.83-7.98-10.56-14.43-.87-7.61,2.34-15.56,6.38-21.85,4.5-7.01,11.22-12.3,18.02-17.02,2.49-1.73,5.05-3.26,6.68-4.5M161.97,44.68h0M141.85,2.13c-.16,0-.32.05-.45.15-.9.69-2.14,1.49-3.45,2.35-1.04.68-2.12,1.38-3.21,2.14-6.39,4.43-13.55,9.95-18.23,17.24-4.95,7.72-7.26,15.65-6.49,22.34.78,6.82,4.89,12.44,11.01,15.03,1.58.67,3.24,1.01,4.84,1.34,1.94.4,3.78.78,5.45,1.69,3.08,1.68,5.42,4.39,7.75,7.26.37.46.75.93,1.12,1.39.76.95,1.54,1.92,2.34,2.87.36.42.89.66,1.5.66.37,0,.76-.09,1.08-.26l.61-.31,11.81-6.08c.78-.4,1.19-1.17,1.07-2.01-.02-.31-.11-.62-.27-.9l-.2-.36c-1.03-1.85-2.09-3.76-3.07-5.67-.27-.53-.58-1.07-.87-1.59-.81-1.43-1.65-2.91-1.94-4.39-.24-1.21.5-1.87,2.13-2.8,1.36-.78,1.91-1.27,2.89-2.17.39-.36.86-.78,1.49-1.33,1.36-1.17,3.44-3.21,3.7-3.47.15-.14.25-.34.25-.56,0-.41-.33-.75-.74-.75h0s-.09,0-.13.01c-.1.02-.19.05-.27.11-.95.58-2.87,1.44-4.73,2.27-1.57.7-3.06,1.36-3.93,1.85-1.45.81-3.09,1.72-4.1,3.3-2.15,3.36.19,7.45,1.9,10.43.3.53.59,1.03.83,1.49.67,1.27,1.37,2.55,2.05,3.79l-4.64,2.39-4.34,2.24c-.39-.48-.78-.97-1.18-1.46-3.88-4.82-7.89-9.8-14.27-11.27-.68-.16-1.36-.28-2.02-.39-1.05-.18-2.04-.36-3.02-.67-1.41-.45-2.74-1.08-3.94-1.88-2.19-1.45-3.94-3.59-4.92-6.04-2.71-6.73-.14-14.43,2.5-19.71,3.01-6.01,7.62-11.71,14.52-17.93l10.07-9.02c.3-.27.33-.73.08-1.04-.15-.18-.36-.27-.58-.27h0ZM141.85,3.63h0,0Z"/>
      </g>
      <path class="cls-4" d="M196.76,219.98c.03,2.62,2.6,4.75,5.92,4.95,12.7,2.99,15.84,14.45,11.2,25.64-5.19,12.86-16.76,21.7-28.45,29.41-2.49,1.56-5.49,3.74-8.47,3.48-2.37-.21-3.52-2.44-3.31-4.67,0-1.39.5-2.95-.17-4.17-.25-.37-.64-.53-1.09-.56-1.72-.16-4.81,1.91-7.07,2.19-3.89.66-6.16-3.66-5.32-7.06.6-3.22,2.76-5.96,4.42-8.73.96-1.58,1.59-2.98,1.36-3.71-.18-.71-1.1-.84-2.49-.72-1.54.14-3.58.42-5.22-.11-2.97-.81-4.69-3.63-3.8-6.56,2.96-8.39,19.26-15.15,27.24-18.25,1.08-4.78-3.6-9.62-5.52-13.09l-5.18-9.22h24.11l1.85,11.18Z"/>
      <g>
        <path class="cls-8" d="M184.61,280.88c-.14,0-.28-.08-.34-.22-.08-.17-.02-.38.14-.48,8.01-4.98,25.42-21.42,29.15-31.73,1.2-3.33,3.45-11.71-1.58-17.59-2-2.34-4.93-4.06-8.25-4.86-.29-.07-.58-.13-.87-.2-1.62-.36-3.15-.71-4.59-1.93-1.37-1.16-2.17-2.8-2.26-4.62-.02-.48.12-.89.42-1.21.31-.32.77-.51,1.26-.51.86,0,1.76.58,1.81,1.68.07,1.57,1.5,2.41,2.11,2.7.65.31,1.33.41,2.05.51l.25.04c.83.13,1.66.4,2.5.69,1.59.55,3.02,1.23,4.26,2.01,2.42,1.54,4.41,3.6,5.73,5.98,2.55,4.59,2.9,10.6.98,16.92-3.66,12.05-15.26,21.74-18.72,24.43-8.35,6.47-13.71,8.28-13.93,8.35-.04.01-.08.02-.12.02Z"/>
        <path class="cls-8" d="M197.7,217.92c.69,0,1.4.44,1.44,1.32.07,1.41,1.11,2.44,2.33,3.02.77.37,1.57.46,2.4.58.82.13,1.65.4,2.43.68,1.45.51,2.88,1.15,4.18,1.97,2.3,1.46,4.27,3.45,5.6,5.84,2.82,5.07,2.6,11.2.95,16.63-3.22,10.59-12.88,19.81-18.6,24.24-8.4,6.5-13.82,8.29-13.82,8.29,8-4.97,25.54-21.5,29.3-31.92,2.1-5.81,2.61-12.98-1.65-17.96-2.17-2.53-5.22-4.2-8.44-4.98-1.97-.47-3.68-.68-5.3-2.05-1.3-1.1-2.05-2.65-2.13-4.35-.04-.88.62-1.32,1.31-1.32M197.7,217.17c-.6,0-1.15.23-1.53.62-.37.39-.55.9-.52,1.48.09,1.92.94,3.66,2.39,4.89,1.51,1.28,3.08,1.63,4.75,2.01.28.06.57.13.86.2,3.24.78,6.1,2.46,8.05,4.74,4.91,5.73,2.7,13.95,1.52,17.22-3.7,10.24-21.02,26.58-28.99,31.54-.32.2-.44.61-.28.95.13.27.4.43.68.43.08,0,.16-.01.23-.04.23-.07,5.64-1.9,14.04-8.41,3.49-2.7,15.16-12.46,18.85-24.62,1.95-6.42,1.59-12.54-1.01-17.21-1.35-2.43-3.38-4.54-5.85-6.11-1.26-.8-2.72-1.49-4.33-2.05-.86-.3-1.7-.58-2.57-.71l-.25-.04c-.69-.1-1.35-.2-1.94-.48-.55-.26-1.84-1.01-1.9-2.38-.06-1.34-1.15-2.04-2.19-2.04h0Z"/>
      </g>
      <g>
        <path class="cls-8" d="M163.25,240.31c-.14,0-.27-.07-.33-.2-.09-.18-.03-.4.15-.5,1.94-1.1,4.13-2.68,6.45-4.35,3.13-2.26,6.37-4.59,9.31-5.96.14-2.59-1.59-5.17-2.99-7.25l-.09-.14c-1.06-1.59-2.01-3.03-2.89-4.58l-4.65-8.26c-.31-.55-.3-1.21.02-1.76.32-.54.87-.86,1.49-.86h24.12c.71,0,1.56.53,1.69,1.32.3,1.85.62,3.06.92,4.24.3,1.19.62,2.42.93,4.3.09.54-.05,1.06-.39,1.46-.36.43-.93.69-1.49.69-.79,0-1.37-.5-1.5-1.31-.3-1.85-.62-3.06-.92-4.24-.23-.89-.46-1.8-.69-2.98h-19.67c1.95,3.47,3.97,7.06,6.22,10.45,1.01,1.52,2.13,3.34,2.82,5.35.32.92.51,1.88.57,2.83.06.92.07,2.24-.52,2.99-.4.52-1.12.76-1.75.97-.17.06-.33.11-.48.17-.61.24-1.22.49-1.83.74-.71.29-2.37,1.15-3.97,1.99-1.75.91-3.57,1.86-4.35,2.17-2.36.93-5.96,2.65-6,2.67-.05.03-.11.04-.16.04Z"/>
        <path class="cls-8" d="M193.83,206.83c.56,0,1.23.42,1.32,1.01.62,3.73,1.23,4.82,1.85,8.54.17,1.04-.72,1.72-1.51,1.72-.53,0-1.02-.3-1.13-.99-.56-3.37-1.11-4.58-1.67-7.54h1.15l-1.32-1.01c.06.36.12.69.18,1.01h-20.62c-.13-.23-.26-.46-.39-.7-.26-.46-.51-.91-.77-1.37-.39.69-.79,1.38-1.18,2.06h2.34c2.1,3.74,4.17,7.46,6.55,11.03,1.1,1.66,2.13,3.38,2.78,5.27.3.88.49,1.8.55,2.73.05.81.08,2.07-.44,2.74-.43.56-1.42.77-2.07,1.02-.61.24-1.22.49-1.83.74-1.49.61-6.83,3.57-8.32,4.16-2.4.95-6.02,2.68-6.02,2.68,4.66-2.63,10.82-8.07,15.93-10.38-.02.2-.05.39-.09.59.32-.32.64-.64.96-.96-.29.11-.58.23-.87.37.26-2.85-1.62-5.59-3.13-7.85-1-1.5-1.99-2.99-2.88-4.56-1.55-2.75-3.1-5.51-4.65-8.26-.51-.9.13-2.06,1.18-2.06h24.11M193.83,206.08h-24.11c-.75,0-1.43.39-1.81,1.05-.39.67-.4,1.47-.02,2.14l2.32,4.13,2.32,4.13c.88,1.57,1.84,3.02,2.91,4.61l.09.14c1.4,2.08,2.97,4.42,2.94,6.8-2.92,1.4-6.09,3.68-9.16,5.9-2.31,1.66-4.49,3.24-6.41,4.32-.35.2-.48.64-.3,1,.13.26.39.4.67.4.11,0,.22-.02.32-.07.04-.02,3.62-1.73,5.98-2.66.81-.32,2.55-1.23,4.39-2.19,1.6-.83,3.25-1.69,3.94-1.98.61-.25,1.22-.49,1.83-.73.14-.06.3-.11.46-.16.65-.22,1.45-.49,1.93-1.1.65-.85.66-2.18.59-3.25-.06-.98-.26-1.97-.59-2.93-.7-2.05-1.84-3.9-2.87-5.44-2.12-3.19-4.04-6.57-5.89-9.87h18.73c.21,1.05.43,1.88.64,2.7.31,1.22.61,2.38.91,4.21.16.98.9,1.62,1.87,1.62.67,0,1.34-.31,1.77-.83.42-.49.59-1.12.48-1.77-.31-1.9-.63-3.14-.94-4.33-.31-1.22-.61-2.38-.91-4.21-.17-1.01-1.2-1.63-2.06-1.63h0Z"/>
      </g>
      <path class="cls-11" d="M378.48,63.51c-1.46-16.82-12.68-31.72-28.93-36.79-17.14-5.49-36.77.92-45.4,17.48l8.42,42.95-15.51,7.45-14.9-7.59-12.52-5.54c-11.71-3.88-24.14-2.31-34.5,3.68-36.11-38.79-98.04-28.97-116.34,21.97-8.24,27.49-6.14,61.5,11.69,84.58,9.46,12.01,23.16,19.98,37.74,24.22,33.94,10.16,67.66-.2,100.17-10.39-.86-5.57-2.48-14.14-8.08-23.84l.42.35c5.75,7.41,9.52,14.6,12.22,22.07.01,0,.02,0,.03-.01,1.88,5.24,3.31,10.69,4.4,16.21,4.4,16.87,3.71,59.28,15.81,69.21,7.6,6,16.49-.71,20.92-7.49,15.79-24.65,20.95-57.45,17.92-86.6-.36-3.77,1.51-6.89,4.19-9.46,31.24-32.44,47.23-77.5,42.24-122.45Z"/>
      <path class="cls-17" d="M323.57,72.37c6.87-.6,15.12-1.44,21.44-4.77,26.56-16.36,1.18-50.59-27.35-19.49l-11.25,11.13,4.61,10.16,12.56,2.96Z"/>
      <path class="cls-12" d="M290.02,91.89l-2.16-1.95-5.7-2.93-12.52-5.54c-11.71-3.88-24.14-2.31-34.5,3.68-18.3-19.66-43.24-26.82-65.76-22.49l-.08.13c-14.36,8.1-22.6,23.69-18.87,39.94,4.89,23.38,27.18,32.83,49,33.95,33.74,2.88,59.65-22.26,88.9-35.82l1.69-8.98Z"/>
      <ellipse class="cls-21" cx="327.95" cy="63.03" rx="9.64" ry="6.75" transform="translate(-4.99 88.97) rotate(-15.33)"/>
      <path class="cls-18" d="M229.38,89.11c1.15-1.78,5.01-2.18,5.5-4.23-17.38-18.49-37.35-25.56-58.87-22.52-6.32,4.23-13.39,9.46-17.07,16.05-4.03,7.23-6.9,16.55-1.94,23.18,1.7,2.27,3.95,4.08,6.35,5.59,9.3,5.89,20.93,7.57,31.77,5.69,10.84-1.89,20.02-9.93,28.58-16.85,2.92-2.36,3.64-3.76,5.68-6.91Z"/>
      <path class="cls-13" d="M16.74,29.24c-.09-4.12,3.04-5.15,5.12-6.14s4.46-2.19,7.61-3.07c3.43-.95,8.17-.97,9.66,3.02.52,1.41-3.78,1.24-6.64,3.36s-6.65,3.69-6.75,7.79c-.07,2.66-2.92,10.21-3.46,9.67s-1.66-3.53-1.68-4.58-3.79-7.22-3.86-10.05Z"/>
      <path class="cls-9" d="M44.67,53.07s-13.77-4.19-22.75.59c-8.98,4.79-19,7.86-18.53,18.37.48,10.51,8.73,16.06,6.63,23.64s4.23,4.27,4.23,4.27c0,0,4.79-.4,7.19-7.13,2.4-6.73-2.15-16.86,2.93-22.13,5.08-5.26,12.11-7.65,18-7.47,8.46.26,14.75-1.74,16.45-3.49s-14.14-6.65-14.14-6.65Z"/>
      <g>
        <path class="cls-5" d="M222.89,97.15c.04-.07,3.54-7.26,9.83-11.98-1.62-1.67-3.12-3.11-4.58-4.38-7.77-6.8-16.97-11.91-26.61-14.77-7.08-2.11-13.41-3.13-19.34-3.13-3.18,0-6.25.31-9.13.92-5.1,1.08-9.67,3.16-12.24,4.74-.27.3-.8.5-1.44.5-1.25,0-2.73-.72-3.17-1.34l-.23-.33.35-.21c5.76-3.39,16.58-7.19,23.49-7.43.8-.03,1.6-.04,2.4-.04,9.28,0,18.75,1.9,27.39,5.5,9.75,4.06,18.52,10.12,26.08,18.01,6.1-3.63,12.86-5.47,20.09-5.47,4.59,0,9.24.76,13.82,2.25l.18.06,1.31,3.94-.78-.35c-4.03-1.83-9.2-2.32-11.23-2.45-.91-.06-1.82-.08-2.71-.08-12.29,0-23.04,5.38-32.87,16.46l-1.79,2.02,1.17-2.43Z"/>
        <path class="cls-20" d="M182.22,60.07c9.32,0,18.64,1.89,27.25,5.47,9.9,4.12,18.77,10.37,26.16,18.14,6.22-3.76,13.13-5.57,20.16-5.57,4.56,0,9.18.76,13.71,2.24l.98,2.95c-3.42-1.55-7.89-2.26-11.36-2.48-.91-.06-1.82-.09-2.74-.09-11.15,0-22.32,4.38-33.15,16.59,0,0,3.56-7.38,10.06-12.09-1.57-1.63-3.19-3.22-4.9-4.71-7.73-6.77-16.89-11.92-26.75-14.85-6.28-1.87-12.89-3.14-19.44-3.14-3.09,0-6.18.28-9.2.93-4.77,1.01-9.46,3-12.36,4.79-.3.31-.75.44-1.24.44-1.13,0-2.49-.66-2.86-1.18,5.79-3.41,16.46-7.14,23.31-7.38.79-.03,1.59-.04,2.38-.04M182.22,59.32c-.8,0-1.61.01-2.41.04-6.97.24-17.86,4.06-23.66,7.48l-.7.41.47.67c.55.78,2.21,1.5,3.48,1.5.7,0,1.29-.21,1.71-.59,2.56-1.56,7.05-3.59,12.05-4.65,2.85-.6,5.89-.91,9.05-.91,5.89,0,12.18,1.02,19.23,3.11,9.59,2.85,18.74,7.93,26.47,14.7,1.36,1.19,2.76,2.52,4.26,4.06-6.14,4.76-9.46,11.56-9.6,11.86l-2.34,4.85,3.58-4.03c9.75-10.99,20.41-16.33,32.59-16.33.88,0,1.79.03,2.69.08,2.01.13,7.12.61,11.1,2.41l1.56.71-.54-1.63-.98-2.95-.12-.36-.36-.12c-4.62-1.51-9.31-2.27-13.94-2.27-7.2,0-13.94,1.81-20.03,5.37-7.55-7.82-16.29-13.84-26-17.88-8.69-3.62-18.21-5.53-27.54-5.53h0Z"/>
      </g>
      <g>
        <path class="cls-1" d="M105.22,216.71s-.04-.03-.95-1.06c-7.57-8.59-14.21-16.48-18.72-25.97-8.14-17.1-12.37-36.28-12.25-55.45.13-19.59,4.84-38.74,13.63-55.38.3-.56.81-.89,1.4-.89.63,0,1.26.36,1.6.92.31.52.33,1.14.03,1.7-4.83,9.15-8.4,19.07-10.6,29.5-3.77,17.88-3.4,36.89,1.08,54.99,5.12,20.67,13.32,37.52,24.38,50.07q1.09,1.24.88,1.49l-.22.25-.27-.18Z"/>
        <path class="cls-10" d="M88.33,78.35c.92,0,1.87.99,1.3,2.07-4.92,9.31-8.46,19.29-10.64,29.59-3.83,18.15-3.37,37.17,1.09,55.16,4.49,18.12,12.11,36.2,24.47,50.23.58.66.88.99.88.99,0,0-.29-.33-.88-.99-7.11-8.07-14.04-16.16-18.66-25.88-8.18-17.2-12.34-36.25-12.21-55.29.12-19.15,4.63-38.25,13.59-55.2.26-.48.66-.69,1.07-.69M88.33,77.6c-.74,0-1.37.4-1.74,1.09-8.82,16.69-13.55,35.9-13.68,55.55-.12,19.23,4.12,38.46,12.29,55.61,4.54,9.53,11.19,17.44,18.78,26.05l.09.1q1.01,1.15,1.35,1.15h.48l.2-.44q.2-.44-1-1.8c-11.02-12.51-19.2-29.3-24.3-49.91-4.47-18.05-4.84-37-1.08-54.83,2.19-10.39,5.75-20.28,10.57-29.4.36-.68.34-1.43-.04-2.07-.4-.67-1.16-1.1-1.92-1.1h0Z"/>
      </g>
      <g>
        <path class="cls-15" d="M127.24,247.98s-.02,0-1.24-.57c-10.07-4.64-19.78-9.38-27.89-16.29-14.52-12.36-26.33-28.27-34.16-45.99-7.98-18.06-11.63-37.51-10.58-56.25.06-1.1.96-1.67,1.82-1.67.5,0,.95.19,1.26.51.29.31.44.73.41,1.21-.59,10.44.27,20.97,2.54,31.3,4.02,18.24,12.31,35.71,23.96,50.51,13.27,16.86,27.72,28.97,42.95,35.99q1.52.7,1.39,1.03l-.13.33-.34-.11Z"/>
        <path class="cls-10" d="M55.18,127.59c.69,0,1.35.44,1.3,1.32-.59,10.53.28,21.1,2.55,31.4,4.06,18.4,12.38,35.86,24.03,50.66,11.67,14.83,25.93,28.19,43.09,36.1.8.37,1.2.55,1.2.55,0,0-.4-.18-1.2-.55-9.8-4.52-19.6-9.24-27.81-16.23-14.61-12.44-26.31-28.32-34.06-45.86-7.76-17.58-11.63-36.85-10.55-56.07.05-.88.76-1.32,1.45-1.32M55.18,126.84c-1.03,0-2.12.7-2.2,2.03-1.06,18.8,2.61,38.31,10.61,56.42,7.85,17.78,19.7,33.73,34.26,46.13,8.14,6.93,17.88,11.69,27.98,16.34l.57.26q.78.36.95.36h.6l.13-.59c.13-.59-.22-.75-.99-1.11l-.63-.29c-15.18-7-29.58-19.07-42.81-35.88-11.61-14.76-19.87-32.17-23.89-50.36-2.27-10.29-3.12-20.79-2.54-31.2.03-.58-.14-1.1-.51-1.49-.38-.4-.94-.63-1.53-.63h0Z"/>
      </g>
      <g>
        <path class="cls-2" d="M444.46,149.24c-3.36,0-6.72-.26-10-.76-.86-.13-1.37-.77-1.31-1.63.07-.88.78-1.78,1.85-1.78.1,0,.2,0,.3.02,2.95.46,6.01.69,9.09.69,1.39,0,2.81-.05,4.22-.14,17.27-1.15,32.3-7.88,41.25-18.47h0c.84-1,.97-1.15,1.12-1.15.03,0,.05,0,.08,0l.21.04.08.2q.08.21-.92,1.39h0c-.83.98-1.63,2.03-2.4,3.04-1.96,2.55-3.98,5.19-6.65,7.09-10.4,7.39-23.51,11.46-36.92,11.46Z"/>
        <path class="cls-10" d="M491,126.4s-.08.09-.23.27c.15-.18.23-.27.23-.27M490.77,126.67c-.14.17-.35.41-.62.74-2.91,3.45-5.31,7.45-8.99,10.06-10.63,7.55-23.69,11.4-36.7,11.4-3.33,0-6.66-.25-9.95-.76-1.66-.26-1.06-2.66.49-2.66.08,0,.16,0,.24.02,3.03.47,6.09.69,9.15.69,1.42,0,2.83-.05,4.25-.14,15.32-1.02,31.52-6.77,41.51-18.6.27-.32.48-.57.62-.74M490.47,125.87s-.09.1-.27.32l.38.32-.38-.32-.11.13,1.12,1-1.15-.97-.1.12-.39.46h0c-8.88,10.51-23.82,17.2-40.98,18.34-1.4.09-2.81.14-4.2.14-3.06,0-6.1-.23-9.04-.68-.12-.02-.24-.03-.36-.03-1.29,0-2.15,1.08-2.23,2.13-.08,1.05.57,1.86,1.62,2.02,3.3.51,6.69.77,10.06.77,13.48,0,26.67-4.1,37.14-11.53,2.72-1.93,4.76-4.59,6.73-7.17.77-1.01,1.57-2.05,2.39-3.02l-.48-.4.48.4.49-.58.14-.16.13-.16.09-.11-1.1-1.02h0Z"/>
      </g>
      <g>
        <path class="cls-6" d="M335.37,279.54c-.68,0-1.35-.39-1.66-.96-.28-.51-.24-1.11.11-1.63,2.61-3.98,4.93-8.11,6.9-12.26,7.55-15.91,10.97-32.2,9.9-47.13h0,0s.17-.01.17-.01c0,0,0,0-.01,0h-.16s.15,0,.15,0c0,0,0,0,0,0h-.15s.14,0,.14,0c0,0,0,0,0,0h-.13s.13,0,.13,0c0,0-.13,0-.13,0l-.07-.98c-.03-.45-.03-.47.08-.59l.11-.12h.16c.35,0,.37.27.4.64l.07.99h-.13s0,.01,0,.02h.13s-.14,0-.14,0c0,0,0,0,0,0h.15s-.15,0-.15,0c0,0,0,0-.01.01h.17c.13,1.86.51,3.78.88,5.64.55,2.8,1.12,5.69.89,8.55-1.33,16.48-6.97,32.75-16.33,47.04-.34.52-.85.8-1.44.8h0Z"/>
        <path class="cls-10" d="M350.9,216.21s.03.44.09,1.32c-.06-.88-.09-1.32-.09-1.32M351,217.53c.34,4.71,2.15,9.44,1.78,14.14-1.34,16.7-7.11,32.86-16.27,46.86-.29.45-.71.63-1.13.63-.96,0-1.91-.98-1.24-2.02,2.58-3.94,4.91-8.05,6.93-12.31,6.98-14.7,11.1-31.08,9.94-47.32M350.9,215.46h-.75v.75s0,.03.09,1.37c1.06,14.86-2.35,31.09-9.87,46.94-1.96,4.14-4.28,8.25-6.88,12.22-.42.64-.47,1.38-.12,2.02.38.69,1.17,1.16,1.99,1.16.71,0,1.35-.35,1.76-.97,9.39-14.35,15.06-30.67,16.39-47.22.23-2.92-.34-5.83-.9-8.66-.36-1.84-.74-3.75-.87-5.6l-.68.05.68-.05-.06-.89c-.04-.5-.08-1.12-.78-1.12h0Z"/>
      </g>
      <g>
        <path class="cls-14" d="M361.83,249.71c-.59,0-1.17-.28-1.5-.72-.3-.41-.38-.92-.22-1.45,4.81-15.65,5.63-31.63,2.36-46.2l-.29-1.29.73-.16.29,1.29c4.27,19.01,4.35,34.04.27,47.31-.23.75-.86,1.22-1.65,1.22h0Z"/>
        <path class="cls-10" d="M362.55,199.96h0M362.55,199.96s.1.44.29,1.29c-.19-.85-.29-1.28-.29-1.29M362.84,201.26c3.52,15.66,5.01,31.73.28,47.12-.21.67-.75.96-1.29.96-.83,0-1.67-.67-1.35-1.69,4.59-14.92,5.78-31.19,2.37-46.39M363.28,199.8l-1.46.33.29,1.29h0c3.26,14.51,2.44,30.42-2.35,46-.2.64-.1,1.28.27,1.79.4.54,1.09.87,1.8.87.96,0,1.73-.57,2.01-1.49,4.1-13.33,4.02-28.43-.26-47.5l-.31.07.31-.07-.29-1.29h0Z"/>
      </g>
      <path class="cls-7" d="M474.12,111.9c-3.58-4.11-9.56-5.31-14.53-7.31-27.26-10.12-48.57-19.47-76.64-13.22-.19,2.7-.44,5.4-.78,8.09-1.82,14.62-5.69,28.96-11.47,42.5,8.13-3.45,16.84-5.78,25.51-7.25,20.13-3.54,40.82-2.63,61.19-4.44,4.17-.43,8.49-1.07,12.16-3.14,5.35-2.74,8.86-10.22,4.56-15.23Z"/>
      <path class="cls-13" d="M3.15,66.92c1.12-4.66,4.9-6.11,7.57-7.85s6.05-2.92,9.91-4.86c4.2-2.11,10.29-2.05,10.34.02.04,1.45-6.22,5.16-10.12,8.42-3.9,3.26-11.15,6.74-10.22,11.65,2.09,10.98-1.84,10.79-2.29,10.34s-3.39-5.23-4.26-8c-.38-1.2-1.7-6.52-.93-9.71Z"/>
      <g>
        <path class="cls-8" d="M25.18,48.7s-.06,0-.09-.02c0,0-.04-.01-.04-.02-4.11-1.62-4.85-3.84-6.06-7.52-.63-1.91-1.41-4.28-2.9-7.47-1.14-2.45-1.3-4.74-.49-6.81,1.86-4.71,8.41-7.37,12.74-9.13,1.31-.53,2.4-.97,3.2-1.38,1.16-.58,2.73-.88,4.68-.88,7,0,17.71,3.92,20.75,5.59,2.79,1.54,4.22,4.29,3.32,6.39-.54,1.26-1.82,2.01-3.43,2.01h0c-.36,0-.74-.04-1.13-.11-.29-.05-.65-.08-1.06-.08-3.69,0-10.77,2.13-13.99,3.87-2.52,1.37-3.66,3.03-3.86,3.67.05,0,.11,0,.17,0,.68,0,1.82-.12,2.74-.22,1.37-.15,3.06-.31,4.79-.31,4.74,0,7.76,1.24,8.98,3.68,1.05,2.09,1.03,2.12.92,2.29-.05.07-.14.12-.22.12-.17,0-.26-.11-.68-.58-.51-.58-1.35-1.54-2.17-2.02-1.03-.6-2.32-.89-3.95-.89s-3.19.26-4.77.51c-.84.13-1.65.26-2.41.34-1.24.14-2.3.25-3.17.25-.96,0-1.63-.14-2.17-.44-.98-.55-1.52-1.45-1.51-2.54.02-2.11,2.31-4.83,5.58-6.6,3.67-1.99,11.36-4.3,15.78-4.3.63,0,1.2.05,1.68.14.07.01.26.05.46.05s.26-.04.26-.04c.12-.3-.25-1.56-1.91-2.47-3.28-1.81-13.35-5.15-19.1-5.15-1.28,0-2.27.17-2.92.5-.95.48-2.11.95-3.46,1.5-4.82,1.96-9.62,4.12-10.86,7.27-.53,1.36-.42,2.83.37,4.51,1.56,3.36,2.41,5.92,3.03,7.79,1.17,3.54,1.49,4.49,4.12,5.53,1.5.59,2.69,1.29,3.54,2.09.08.07.1.18.06.27-.04.1-.13.16-.23.16-1.65,0-3.17.15-4.53.43-.02,0-.03,0-.05,0Z"/>
        <path class="cls-8" d="M36.22,15.73c7.23,0,17.91,4.07,20.62,5.56,2.68,1.48,4.06,4.09,3.21,6.08-.41.96-1.45,1.86-3.2,1.86-.34,0-.7-.03-1.08-.11-.31-.06-.69-.09-1.1-.09-3.61,0-10.69,2.05-14.11,3.9-2.85,1.55-4.08,3.54-4.02,4.11.11.02.26.03.45.03.72,0,1.91-.13,2.85-.23,1.31-.15,2.97-.3,4.68-.3,3.55,0,7.32.68,8.76,3.54.76,1.52,1.01,2.05.92,2.05-.15,0-1.45-1.83-2.72-2.57-1.19-.69-2.6-.93-4.08-.93-2.41,0-5.02.62-7.21.86-1.25.14-2.28.25-3.14.25s-1.51-.11-2.05-.41c-.9-.5-1.39-1.33-1.38-2.32.02-2.03,2.26-4.65,5.45-6.38,3.51-1.9,11.11-4.27,15.66-4.27.6,0,1.16.04,1.64.13.07.01.29.05.51.05s.41-.04.47-.16c.21-.5-.27-1.86-2-2.82-3.47-1.92-13.5-5.18-19.22-5.18-1.26,0-2.31.16-3.03.52-.94.48-2.11.95-3.45,1.5-7.48,3.03-13.44,6.04-10.61,12.12,1.55,3.34,2.4,5.9,3.02,7.77,1.17,3.53,1.52,4.6,4.27,5.69,1.61.64,2.71,1.34,3.46,2.04-1.58.01-3.13.14-4.58.43-.02,0-.03-.01-.05-.02-3.99-1.58-4.71-3.76-5.91-7.36-.63-1.91-1.42-4.29-2.91-7.5-4.18-8.99,6.02-13.13,12.12-15.6,1.28-.52,2.39-.97,3.22-1.39,1.19-.6,2.77-.85,4.57-.85M36.22,15.23c-1.99,0-3.6.31-4.79.91-.81.41-1.91.85-3.18,1.37-4.38,1.78-10.99,4.46-12.89,9.27-.84,2.13-.67,4.49.49,7,1.48,3.19,2.26,5.55,2.89,7.44,1.2,3.62,1.99,6.01,6.2,7.67.07.03.17.05.26.05.02,0,.05,0,.07,0,1.34-.27,2.85-.41,4.49-.42.2,0,.39-.13.46-.32.07-.19.02-.41-.13-.55-.88-.81-2.1-1.53-3.62-2.13-2.53-1-2.81-1.84-3.98-5.38-.62-1.88-1.47-4.45-3.04-7.82-.75-1.61-.87-3.03-.36-4.32,1.2-3.05,5.95-5.19,10.71-7.12,1.35-.55,2.52-1.02,3.49-1.51.62-.31,1.56-.47,2.81-.47,5.7,0,15.72,3.32,18.98,5.12,1.35.75,1.75,1.67,1.79,2.04,0,0,0,0-.01,0-.18,0-.37-.04-.41-.04-.5-.09-1.08-.14-1.73-.14-4.53,0-12.13,2.28-15.9,4.33-3.4,1.84-5.69,4.58-5.71,6.82,0,1.18.57,2.16,1.64,2.76.58.32,1.31.47,2.3.47.88,0,1.95-.12,3.19-.25.78-.09,1.58-.21,2.43-.35,1.57-.25,3.2-.51,4.73-.51s2.84.28,3.83.86c.78.45,1.61,1.4,2.1,1.97.46.53.59.67.87.67.17,0,.35-.1.44-.24.19-.31.16-.38-.91-2.53-1.27-2.53-4.36-3.82-9.2-3.82-1.74,0-3.44.16-4.73.3h-.06c-.83.1-1.84.21-2.52.23.38-.69,1.46-2.04,3.6-3.2,3.51-1.9,10.51-3.84,13.87-3.84.4,0,.74.03,1.01.08.41.08.8.11,1.18.11,1.71,0,3.08-.81,3.66-2.16.95-2.22-.52-5.1-3.43-6.71-3.05-1.68-13.82-5.63-20.87-5.63h0Z"/>
      </g>
      <g>
        <path class="cls-23" d="M298.67,110.62c-.66,0-1.34-.02-2.02-.07-9.91-.7-19.94-5.45-26.18-12.4-.52-.58-.65-1.35-.33-2.05.32-.73,1.04-1.22,1.77-1.22.49,0,.94.21,1.3.62,2.98,3.32,6.98,6.1,11.88,8.25,4.35,1.91,8.84,2.97,13,3.06.2,0,.39,0,.59,0,1.95,0,3.69-.22,5.33-.66.93-.25,1.45-1.02,2.05-1.9.5-.74,1.02-1.51,1.85-2.04,3.89-2.52,6.53-4.94,8.81-8.07.77-1.05,1.62-2.06,2.45-3.04,2.25-2.66,4.38-5.18,4.83-8.47.06-.46.14-1.02.65-1.02.55,0,.58.61.6,1.02.27,4.87.12,8.86-4.43,15.88-2.54,3.92-6.63,6.61-10.96,9.24-3.13,1.9-6.89,2.87-11.17,2.87Z"/>
        <path class="cls-23" d="M324.63,82.11s.08.18.1.55c.28,4.88.1,8.71-4.35,15.58-2.56,3.96-6.77,6.64-10.8,9.08-3.28,1.99-7.1,2.79-10.91,2.79-.66,0-1.33-.02-1.99-.07-9.48-.67-19.49-5.15-25.84-12.23-.92-1.03.03-2.43,1.07-2.43.32,0,.65.13.93.45,3.29,3.67,7.54,6.39,12.05,8.37,4.13,1.81,8.66,3,13.19,3.1.2,0,.4,0,.6,0,1.84,0,3.67-.19,5.46-.68,1.97-.53,2.34-2.91,4.03-4.01,3.61-2.34,6.41-4.71,8.94-8.2,2.8-3.85,6.73-7.04,7.36-11.74.05-.39.11-.59.16-.59M324.63,81.11c-.95,0-1.09,1.02-1.15,1.45-.42,3.15-2.51,5.61-4.71,8.22-.83.98-1.69,2-2.47,3.07-2.27,3.12-4.79,5.42-8.68,7.95-.91.59-1.48,1.43-1.99,2.18-.63.93-1.05,1.5-1.77,1.7-1.59.43-3.29.64-5.19.64-.19,0-.39,0-.58,0-4.09-.09-8.52-1.13-12.81-3.02-4.83-2.12-8.77-4.86-11.7-8.13-.45-.5-1.05-.78-1.68-.78-.93,0-1.82.61-2.23,1.51-.4.89-.24,1.86.42,2.59,6.32,7.04,16.48,11.86,26.52,12.56.69.05,1.38.07,2.06.07,4.37,0,8.22-.99,11.43-2.94,4.38-2.66,8.53-5.38,11.12-9.4,4.63-7.15,4.79-11.22,4.51-16.18-.02-.37-.08-1.49-1.1-1.49h0Z"/>
      </g>
      <path class="cls-22" d="M315.49,45.78c-3.84-2.7-9-2.41-13.42-1.57-6.58,1.43-12.55,5.36-19.39,4.53-9.32-1-18.02-5.19-27.2-6.84-8.19-.71-7.36,10.13-4.05,14.93,3.08,5.22,8.6,8.53,14.37,9.96,11.16,2.93,23.44.57,34.44,4.63,9.18,2.91,10.19,18.57-1.82,19.93-8.88.6-15.65-12.61-23.71-16.26-11.35-5.57-4.45,14.28.27,19.64,7.95,9.04,23.76,14.56,33.73,8.53,8.2-4.99,14.5-11.38,15.99-23.03.94-7.37-3.21-12.04-6.1-18.79-1.52-3.45-.19-13.52-2.98-15.57l-.14-.1Z"/>
      <ellipse class="cls-3" cx="261.3" cy="51.56" rx="2.18" ry="3.94" transform="translate(86 252.08) rotate(-60)"/>
      <g>
        <path class="cls-8" d="M297.91,106.69c-7.6,0-15.28-2.8-21.06-7.69-4.68-3.96-8.09-10.01-9.58-17.05-.57-2.7-.95-5.75.6-7.88.81-1.11,1.96-1.68,3.42-1.68,1.26,0,2.73.42,4.51,1.28,3.51,1.7,6.32,4.53,9.05,7.27l1.7,1.71c2.55,2.56,5.43,5.47,8.91,6.57.75.24,1.53.36,2.34.36,2.42,0,4.7-1.06,6.11-2.84,1.61-2.03,2.06-5.09,1.18-7.97-.86-2.81-2.84-4.82-5.72-5.82-5.92-2.05-12.31-2.34-17.95-2.6-9.68-.45-22.94-1.06-30.31-10.88-2.39-3.18-3.7-6.78-3.79-10.41-.1-4.09,1.57-7.23,4.47-8.41.85-.35,1.76-.52,2.77-.52,1.24,0,2.46.25,3.79.55,2.92.66,5.7,1.5,8.78,2.45l.86.27c2.69.83,5.48,1.7,8.26,2.38,2.81.69,5.57,1.31,8.33,1.31.15,0,.29,0,.44,0,3.59-.09,7.04-1.35,10.37-2.57,1.9-.7,3.87-1.42,5.86-1.92,1.56-.39,3.06-.59,4.46-.59,2.69,0,5.06.7,7.23,2.14.08,0,.17.04.23.1l.24.23c1.48,1.05,2.6,2.29,3.51,3.29l.27.3c.13.14.13.36,0,.5-.07.08-.18.12-.28.12-.08,0-.15-.02-.22-.07-.3-.22-.64-.49-1.01-.78-1.73-1.36-4.09-3.23-6.61-3.23-.17,0-.34,0-.52.03-4.73.49-8.37,1.8-12.22,3.18-1.1.4-2.22.79-3.37,1.18-1.94.65-4.88,1.52-7.93,1.59-.16,0-.32,0-.48,0-2.87,0-5.84-.64-8.41-1.24-3.09-.72-6.16-1.67-9.13-2.59-2.54-.78-5.16-1.6-7.77-2.26l-.3-.08c-1.33-.34-2.84-.72-4.18-.72-1.96,0-3.12.83-3.65,2.61-.75,2.52-.29,5.82,1.2,8.61,2.1,3.93,5.58,7.01,10.07,8.91,5.08,2.15,10.65,2.6,16.38,2.9.88.05,1.77.09,2.65.13,4.93.23,10.03.47,14.94,1.59,3.56.82,7.58,1.99,10.18,5.52,1.84,2.5,2.73,5.73,2.44,8.85-.32,3.45-1.97,6.38-4.64,8.24-1.9,1.32-4.14,2.02-6.49,2.02-1.5,0-2.95-.28-4.32-.84-4.17-1.7-7.29-4.93-10.3-8.04-2.67-2.77-5.44-5.63-8.9-7.35-.92-.46-1.97-.98-2.92-.98-.12,0-.24,0-.35.03-.05,0-.18.05-.29.17-.05.06-.22.34-.28.56-.56,2,.18,4.85.88,7.11.94,3.03,2.18,5.76,3.68,8.14,1.65,2.62,4.36,5.1,8.06,7.37,4.58,2.81,11.38,4.63,17.33,4.63,4.12,0,7.71-.84,10.41-2.44.06-.04.13-.05.19-.05.09,0,.18.03.25.1.12.11.16.29.09.44-.72,1.56-5.84,3.88-7.86,4.26-1.81.35-3.69.53-5.59.53Z"/>
        <path class="cls-8" d="M254.54,40.52c1.23,0,2.47.26,3.71.54,2.96.67,5.86,1.55,8.75,2.44,3.03.94,6.06,1.89,9.14,2.65,2.72.67,5.59,1.33,8.42,1.33.15,0,.3,0,.45,0,5.71-.14,10.86-3.13,16.31-4.5,1.6-.4,3.05-.58,4.37-.58,3.22,0,5.62,1.05,7.45,2.36l3.76,3.57c-1.78-1.3-4.65-4.08-7.83-4.08-.18,0-.37,0-.56.03-6.14.64-10.52,2.66-15.67,4.37-2.53.84-5.15,1.51-7.83,1.57-.16,0-.31,0-.47,0-2.78,0-5.63-.6-8.32-1.23-5.71-1.34-11.21-3.41-16.89-4.85-1.43-.36-3.08-.81-4.57-.81-1.79,0-3.35.65-4.01,2.88-.84,2.85-.15,6.31,1.22,8.89,2.22,4.17,5.93,7.25,10.26,9.08,5.18,2.19,10.96,2.64,16.51,2.93,5.86.31,11.78.39,17.52,1.71,3.84.88,7.54,2.09,9.96,5.37,1.78,2.43,2.65,5.59,2.37,8.59-.3,3.19-1.82,6.11-4.48,7.96-1.86,1.29-4.06,1.95-6.28,1.95-1.42,0-2.84-.27-4.18-.82-7.8-3.18-11.75-11.68-19.18-15.38-.96-.48-2.05-1.02-3.09-1.02-.14,0-.27,0-.41.03-.12.02-.32.09-.5.28-.09.09-.29.43-.37.72-.6,2.13.18,5.07.89,7.32.89,2.87,2.12,5.68,3.72,8.23,1.93,3.05,5.05,5.56,8.18,7.49,4.45,2.74,11.19,4.69,17.52,4.69,3.9,0,7.64-.74,10.6-2.49-.63,1.36-5.47,3.65-7.59,4.05-1.82.35-3.67.52-5.52.52-7.57,0-15.17-2.83-20.82-7.6-5.02-4.24-8.1-10.46-9.46-16.84-.5-2.36-1-5.48.54-7.58.82-1.12,1.93-1.52,3.12-1.52,1.48,0,3.07.62,4.35,1.24,3.84,1.87,6.88,5.14,9.86,8.12,2.83,2.82,5.92,6.21,9.84,7.45.79.25,1.62.37,2.45.37,2.43,0,4.87-1.05,6.4-2.98,1.84-2.32,2.09-5.56,1.24-8.32-.91-2.98-3.05-5.05-5.96-6.06-5.83-2.01-11.95-2.34-18.06-2.62-10.76-.5-23-1.36-30.03-10.73-2.23-2.97-3.62-6.45-3.71-10.19-.08-3.21,1.03-6.75,4.24-8.05.87-.36,1.75-.49,2.63-.49M312.9,44.53l.24.23-.24-.23M313.14,44.76c1.64,1.17,2.83,2.55,3.76,3.57l-3.76-3.57M316.9,48.32h0M316.9,48.32h0M254.54,39.77c-1.06,0-2.01.18-2.91.54-3.05,1.24-4.8,4.51-4.7,8.76.09,3.7,1.42,7.38,3.86,10.62,7.48,9.95,20.84,10.57,30.6,11.02,5.61.26,11.98.55,17.84,2.58,2.76.95,4.66,2.88,5.48,5.57.85,2.77.42,5.69-1.11,7.63-1.34,1.69-3.51,2.7-5.82,2.7-.77,0-1.52-.11-2.23-.34-3.39-1.08-6.24-3.95-8.76-6.48-.26-.27-.53-.53-.79-.79-.3-.3-.61-.61-.91-.91-2.75-2.76-5.58-5.62-9.15-7.35-1.83-.89-3.36-1.32-4.67-1.32-1.58,0-2.83.62-3.72,1.83-1.64,2.25-1.25,5.39-.66,8.17,1.51,7.12,4.96,13.25,9.71,17.26,5.85,4.94,13.62,7.78,21.3,7.78,1.92,0,3.82-.18,5.66-.53,1.93-.37,7.29-2.66,8.13-4.48.14-.3.07-.65-.18-.87-.14-.13-.32-.19-.5-.19-.13,0-.26.03-.38.1-2.64,1.56-6.17,2.39-10.21,2.39-5.89,0-12.61-1.8-17.13-4.58-3.65-2.24-6.32-4.68-7.94-7.25-1.48-2.35-2.71-5.06-3.64-8.05-.69-2.21-1.41-5-.88-6.9.04-.15.17-.36.21-.42.03-.03.07-.04.07-.04.08-.01.18-.02.28-.02.87,0,1.87.5,2.76.94,3.41,1.7,6.15,4.53,8.8,7.28,3.04,3.15,6.18,6.4,10.43,8.13,1.42.58,2.92.87,4.46.87,2.43,0,4.74-.72,6.7-2.08,2.76-1.92,4.47-4.94,4.8-8.51.3-3.21-.61-6.53-2.51-9.1-2.67-3.63-6.77-4.83-10.39-5.66-4.94-1.14-10.05-1.37-15-1.6-.89-.04-1.77-.08-2.65-.13-5.7-.3-11.23-.74-16.26-2.87-4.41-1.87-7.83-4.89-9.89-8.74-1.44-2.7-1.89-5.89-1.17-8.32.48-1.62,1.49-2.34,3.29-2.34,1.29,0,2.78.38,4.09.71l.3.08c2.6.66,5.22,1.47,7.75,2.25,2.98.92,6.05,1.87,9.15,2.6,2.59.61,5.59,1.25,8.49,1.25.16,0,.33,0,.49,0,3.1-.08,6.08-.96,8.04-1.61,1.16-.39,2.29-.79,3.38-1.18,3.83-1.37,7.46-2.67,12.14-3.16.16-.02.32-.02.48-.02,2.38,0,4.69,1.82,6.37,3.15.37.29.7.56,1.01.78.04.03.08.06.12.08,0,0,0,0,0,0h0c.06.03.13.05.2.06h0s0,0,0,0c.04,0,.08.01.12.01.01,0,.02,0,.03,0,0,0,0,0,0,0h0c.4-.02.72-.35.72-.75,0-.22-.09-.41-.24-.55l-.23-.25c-.91-1-2.03-2.24-3.56-3.34l-.2-.19c-.1-.1-.22-.16-.35-.19-2.22-1.45-4.64-2.15-7.37-2.15-1.43,0-2.97.2-4.55.6-2,.51-3.98,1.23-5.89,1.93-3.31,1.21-6.72,2.46-10.25,2.55-.14,0-.29,0-.43,0-2.72,0-5.45-.62-8.24-1.3-2.76-.68-5.52-1.53-8.2-2.36l-.9-.28c-2.97-.92-5.87-1.79-8.81-2.45-1.36-.31-2.59-.56-3.88-.56h0Z"/>
      </g>
      <g>
        <path class="cls-8" d="M10.93,102.29c-.99,0-1.83-.26-2.51-.77-2.27-1.72-1.24-5.22-.9-6.37,1.01-3.41-.63-6.41-2.7-10.21-.3-.55-.62-1.1-.94-1.66-1.88-3.27-4.01-6.97-3.57-11.59,1.23-13.02,17.8-18.63,23.69-19.2,0,0,.02,0,.02,0,.11,0,.21.08.24.19.03.12-.03.24-.14.29,0,0-2.74,1.25-4.23,1.95-6.18,2.92-16.5,8.96-16.13,16.65.23,4.7,2.21,8.34,4.13,11.86,2.23,4.09,4.34,7.96,2.96,12.61-.68,2.3-.28,2.91-.26,2.93,0,0,.08.04.31.04h0c.55,0,1.4-.23,2.07-.55l.26-.13.38-.05c.16-.02,4.13-.5,6.28-6.15.97-2.54.74-5.89.52-9.12-.34-5.05-.69-10.26,3.03-13.88,6.57-6.39,21.64-7.08,27.81-7.08.43,0,.86,0,1.3,0,.11,0,.21.08.24.19.03.11-.02.22-.11.28-2.1,1.25-5.34,1.7-9.1,2.23-6.18.87-13.18,1.86-17.65,6.66-2.44,2.63-2.39,6.54-2.06,11.39.24,3.57.49,7.26-.72,10.45-2.56,6.74-7.47,8.03-8.91,8.26-.61.28-1.93.78-3.32.78Z"/>
        <path class="cls-8" d="M24.02,52.73s-2.74,1.25-4.23,1.96c-5.3,2.5-16.67,8.74-16.28,16.89.23,4.76,2.23,8.42,4.16,11.97,2.21,4.05,4.29,7.87,2.94,12.42-.66,2.23-.35,3.06-.18,3.2.09.07.25.1.46.1.56,0,1.45-.22,2.18-.58l.26-.13.3-.03c.16-.02,4.28-.5,6.49-6.31.99-2.59.76-5.97.54-9.23-.34-4.99-.68-10.15,2.95-13.68,5.2-5.06,16.66-7.01,27.64-7.01.43,0,.86,0,1.29,0-5.45,3.24-19.53,1.13-26.8,8.93-2.59,2.78-2.44,6.99-2.13,11.58.24,3.55.49,7.21-.7,10.34-2.53,6.66-7.4,7.89-8.71,8.1-.6.27-1.92.78-3.28.78-.82,0-1.65-.19-2.36-.72-2.13-1.62-1.14-4.99-.81-6.1,1.04-3.51-.62-6.55-2.73-10.41-1.98-3.63-4.99-7.76-4.48-13.11,1.23-13,18.05-18.45,23.47-18.97M24.02,52.23s-.03,0-.05,0c-5.95.58-22.67,6.25-23.92,19.42-.45,4.7,1.71,8.44,3.6,11.74.32.56.64,1.12.94,1.66,2.05,3.75,3.66,6.72,2.69,10.03-.35,1.19-1.42,4.81.99,6.64.72.54,1.61.82,2.66.82,1.39,0,2.72-.49,3.43-.8,1.55-.27,6.46-1.64,9.04-8.41,1.23-3.23.98-6.95.74-10.55-.32-4.79-.38-8.65,2-11.21,4.41-4.74,11.36-5.72,17.5-6.58,3.78-.53,7.05-.99,9.19-2.26.19-.11.29-.34.23-.56-.06-.22-.25-.37-.48-.37-.43,0-.87,0-1.3,0-6.2,0-21.35.7-27.99,7.16-3.8,3.7-3.45,8.97-3.1,14.08.22,3.21.44,6.53-.51,9.02-2.1,5.51-5.92,5.97-6.08,5.99l-.29.02c-.06,0-.12.02-.17.05l-.26.13c-.71.35-1.53.53-1.96.53-.06,0-.1,0-.13,0-.06-.21-.18-.93.33-2.65,1.4-4.75-.73-8.66-2.98-12.8-1.9-3.49-3.87-7.11-4.1-11.75-.37-7.55,9.86-13.52,15.99-16.41,1.49-.7,4.22-1.95,4.22-1.95.22-.1.34-.35.28-.58-.06-.22-.26-.37-.48-.37h0ZM24.02,53.23h0,0Z"/>
      </g>
      <path class="cls-16" d="M54.57,84.66c-4.8-2.55-9.08-7.44-10.2-11.11,0,0-.82-1.89-.28-4.24-5.96.66-9.42.41-15.87,8.1,1.12,2.43,2.74,4.9,4.61,6.76,4.52,4.48,13.48,8.89,17.3,9.26s9.01-.89,10.17-3.53c1.17-2.64-.94-2.69-5.74-5.24Z"/>
      <g>
        <path class="cls-8" d="M51.79,95.12c-.48,0-.95-.02-1.39-.07-4.09-.42-13.03-5.06-17.65-9.86-1.7-1.76-3.29-4.15-4.48-6.72-.04-.08-.03-.18.03-.26.68-.89,1.3-1.67,1.89-2.36.05-.06.12-.09.19-.09.01,0,.03,0,.04,0,.09.01.16.07.19.15,1.07,2.67,2.62,5.14,4.37,6.95,4.29,4.47,12.59,8.59,15.73,8.91.46.05.95.07,1.43.07,3.25,0,6.24-1.07,6.81-2.43.19-.45.18-1.09.18-1.11-.06-.68-.5-1.55-3.33-2.71-1.81-.75-3.51-2.17-4.41-3.17-.08-.09-.09-.23-.01-.32.05-.06.12-.09.2-.09.04,0,.08.01.12.03.58.32,2.47.97,3.98,1.49,1.2.41,2.24.77,2.59.94,2.58,1.28,5.01,2.49,3.54,6.01-1.34,3.19-6,4.62-10.01,4.62Z"/>
        <path class="cls-8" d="M30.38,76.02c.96,2.39,2.47,5,4.42,7.03,4.32,4.5,12.71,8.66,15.89,8.99.48.05.97.07,1.46.07,3.19,0,6.39-1.02,7.04-2.58.22-.51.2-1.21.2-1.22-.07-.76-.51-1.71-3.48-2.94-1.94-.8-3.62-2.33-4.32-3.11,1.03.58,5.8,2.05,6.58,2.44,2.58,1.28,4.8,2.39,3.42,5.69-1.35,3.2-6.19,4.47-9.78,4.47-.48,0-.94-.02-1.37-.07-4.05-.42-12.91-5.02-17.49-9.78-1.72-1.79-3.29-4.19-4.44-6.65.66-.87,1.28-1.65,1.88-2.35M30.38,75.52c-.15,0-.28.06-.38.18-.6.71-1.24,1.5-1.9,2.37-.11.15-.13.34-.05.51,1.21,2.59,2.82,5,4.53,6.79,4.65,4.84,13.67,9.51,17.8,9.93.45.05.93.07,1.42.07,4.1,0,8.86-1.48,10.24-4.78,1.57-3.73-1.08-5.05-3.65-6.33-.35-.17-1.22-.48-2.62-.96-1.51-.52-3.39-1.16-3.94-1.47-.08-.04-.16-.06-.24-.06-.15,0-.29.07-.39.19-.15.19-.14.47.02.65.92,1.01,2.65,2.47,4.5,3.23,3.07,1.26,3.14,2.14,3.17,2.52,0,.14-.02.64-.16.98-.53,1.25-3.48,2.27-6.58,2.27-.48,0-.95-.02-1.41-.07-3.11-.32-11.33-4.41-15.58-8.84-1.72-1.79-3.26-4.23-4.32-6.87-.07-.16-.21-.28-.38-.31-.03,0-.05,0-.08,0h0Z"/>
      </g>
    </g>
  </g>
</svg>